<svg width="28" height="28" viewBox="0 0 28 28" fill="none" xmlns="http://www.w3.org/2000/svg">
<g clip-path="url(#clip0_3652_96524)">
<path d="M28 14C28 6.26801 21.732 0 14 0C6.26801 0 0 6.26801 0 14C0 21.732 6.26801 28 14 28C21.732 28 28 21.732 28 14Z" fill="#8247E5"/>
<path d="M28 14C28 6.26801 21.732 0 14 0C6.26801 0 0 6.26801 0 14C0 21.732 6.26801 28 14 28C21.732 28 28 21.732 28 14Z" fill="url(#paint0_linear_3652_96524)" fill-opacity="0.3"/>
<path d="M18.2798 10.9195C18.1186 10.8265 17.9358 10.7775 17.7498 10.7775C17.5637 10.7775 17.3809 10.8265 17.2198 10.9195L14.8098 12.3395L13.1598 13.2695L10.7498 14.6995C10.4398 14.8895 10.0298 14.8895 9.68976 14.6995L7.76976 13.5795C7.61188 13.4873 7.48027 13.3561 7.38749 13.1986C7.2947 13.041 7.24384 12.8623 7.23976 12.6795V10.4795C7.23658 10.2952 7.28439 10.1136 7.37792 9.95482C7.47145 9.796 7.60705 9.66611 7.76976 9.57951L9.66976 8.49951C9.96976 8.31951 10.3698 8.31951 10.7098 8.49951L12.6098 9.58951C12.9098 9.76951 13.1298 10.1095 13.1298 10.4895V11.9095L14.7698 10.9495V9.51951C14.7739 9.33625 14.7276 9.15537 14.6359 8.99664C14.5442 8.83792 14.4106 8.70746 14.2498 8.61951L10.7498 6.57951C10.5886 6.48648 10.4058 6.4375 10.2198 6.4375C10.0337 6.4375 9.8509 6.48648 9.68976 6.57951L6.12976 8.62951C5.96705 8.71611 5.83145 8.846 5.73792 9.00482C5.64439 9.16364 5.59658 9.34522 5.59976 9.52951V13.6495C5.59658 13.8338 5.64439 14.0154 5.73792 14.1742C5.83145 14.333 5.96705 14.4629 6.12976 14.5495L9.68976 16.5895C9.99976 16.7795 10.3998 16.7795 10.7498 16.5895L13.1598 15.1895L14.8098 14.2395L17.2198 12.8395C17.5298 12.6495 17.9398 12.6495 18.2798 12.8395L20.1698 13.9295C20.4698 14.1095 20.6998 14.4495 20.6998 14.8295V17.0295C20.7029 17.2138 20.6551 17.3954 20.5616 17.5542C20.4681 17.713 20.3325 17.8429 20.1698 17.9295L18.2698 19.0395C17.9698 19.2295 17.5698 19.2295 17.2198 19.0395L15.3298 17.9595C15.1737 17.8661 15.0441 17.7344 14.9531 17.5769C14.8621 17.4194 14.8128 17.2414 14.8098 17.0595V15.6295L13.1598 16.5895V18.0195C13.1566 18.2038 13.2044 18.3854 13.2979 18.5442C13.3915 18.703 13.5271 18.8329 13.6898 18.9195L17.2498 20.9595C17.5598 21.1495 17.9698 21.1495 18.3098 20.9595L21.8698 18.9195C22.1798 18.7295 22.3998 18.3895 22.3998 18.0195V13.8895C22.4029 13.7052 22.3551 13.5236 22.2616 13.3648C22.1681 13.206 22.0325 13.0761 21.8698 12.9895L18.2698 10.9195H18.2798Z" fill="#EBEDF0"/>
</g>
<defs>
<linearGradient id="paint0_linear_3652_96524" x1="0" y1="0" x2="14" y2="28" gradientUnits="userSpaceOnUse">
<stop stop-color="white"/>
<stop offset="1" stop-color="white" stop-opacity="0"/>
</linearGradient>
<clipPath id="clip0_3652_96524">
<rect width="28" height="28" fill="white"/>
</clipPath>
</defs>
</svg>
