<svg width="24" height="24" viewBox="0 0 24 24" fill="none" xmlns="http://www.w3.org/2000/svg">
<path d="M2.00195 12.0039C2.00195 8.23291 2.00195 6.34691 3.17395 5.17591C4.34495 4.00391 6.23095 4.00391 10.002 4.00391H14.002C17.773 4.00391 19.659 4.00391 20.83 5.17591C22.002 6.34691 22.002 8.23291 22.002 12.0039C22.002 15.7749 22.002 17.6609 20.83 18.8319C19.659 20.0039 17.773 20.0039 14.002 20.0039H10.002C6.23095 20.0039 4.34495 20.0039 3.17395 18.8319C2.00195 17.6609 2.00195 15.7749 2.00195 12.0039Z" stroke="#FF7557" stroke-width="1.5"/>
<path d="M12.002 10.0039V14.0039M10.27 11.0039L13.734 13.0039M13.734 11.0039L10.27 13.0039M6.73495 10.0039V14.0039M5.00195 11.0039L8.46595 13.0039M8.46595 11.0039L5.00195 13.0039M17.27 10.0039V14.0039M15.538 11.0039L19.002 13.0039M19.002 11.0039L15.537 13.0039" stroke="#FF7557" stroke-width="1.5" stroke-linecap="round"/>
</svg>
