<svg width="456" height="315" viewBox="0 0 456 315" fill="none" xmlns="http://www.w3.org/2000/svg">
<path d="M79 225H392" stroke="#909499" stroke-dasharray="9 9"/>
<mask id="mask0_854_226" style="mask-type:alpha" maskUnits="userSpaceOnUse" x="0" y="0" width="456" height="315">
<rect width="456" height="315" fill="#D9D9D9"/>
</mask>
<g mask="url(#mask0_854_226)">
<g filter="url(#filter0_f_854_226)">
<circle opacity="0.1" cx="227" cy="223.749" r="79.1207" fill="url(#paint0_linear_854_226)" stroke="#7F98F3" stroke-width="2"/>
<circle opacity="0.1" cx="227.415" cy="224.164" r="102.783" fill="url(#paint1_linear_854_226)" stroke="#7F98F3" stroke-width="2"/>
<circle opacity="0.21" cx="227" cy="223.748" r="134.748" fill="url(#paint2_linear_854_226)" stroke="#7F98F3" stroke-width="2"/>
<circle cx="227.415" cy="224.164" r="55.6278" fill="#1DA1F2"/>
</g>
<circle opacity="0.1" cx="227" cy="223.749" r="79.1207" fill="url(#paint3_linear_854_226)" stroke="#7F98F3" stroke-width="2"/>
<circle opacity="0.1" cx="227.415" cy="224.164" r="102.783" fill="url(#paint4_linear_854_226)" stroke="#7F98F3" stroke-width="2"/>
<path opacity="0.21" d="M352 223.5C352 292.256 296.039 348 227 348C157.961 348 102 292.256 102 223.5C102 154.744 157.961 99 227 99C296.039 99 352 154.744 352 223.5Z" fill="url(#paint5_linear_854_226)" stroke="#7F98F3" stroke-width="2"/>
<circle cx="227.415" cy="224.164" r="55.6278" fill="#1DA1F2"/>
</g>
<circle cx="79.5" cy="224.5" r="54.5" fill="#131315" stroke="#454647" stroke-width="2"/>
<circle cx="374.5" cy="224.5" r="54.5" fill="#131315" stroke="#454647" stroke-width="2"/>
<g clip-path="url(#clip0_854_226)">
<path d="M228 215.312C228 209.984 232.48 205.552 237.808 205.625C239.674 205.646 241.494 206.206 243.05 207.238C244.605 208.269 245.829 209.727 246.576 211.437H255.125L247.302 219.26C246.797 227.118 243.319 234.489 237.574 239.874C231.829 245.259 224.249 248.254 216.375 248.25C208.625 248.25 206.687 245.344 206.687 245.344C206.687 245.344 214.437 242.437 218.312 236.625C218.312 236.625 202.812 228.875 206.687 207.562C206.687 207.562 216.375 217.25 228 219.187V215.312Z" stroke="#131315" stroke-width="3" stroke-linecap="round" stroke-linejoin="round"/>
</g>
<g clip-path="url(#clip1_854_226)">
<path d="M55 206H103V240C103 240.53 102.789 241.039 102.414 241.414C102.039 241.789 101.53 242 101 242H57C56.4696 242 55.9609 241.789 55.5858 241.414C55.2107 241.039 55 240.53 55 240V206Z" stroke="#AAAEB3" stroke-width="3" stroke-linecap="round" stroke-linejoin="round"/>
<path d="M103 206L79 228L55 206" stroke="#AAAEB3" stroke-width="3" stroke-linecap="round" stroke-linejoin="round"/>
</g>
<g clip-path="url(#clip2_854_226)">
<path d="M364 251C364.789 251.003 365.571 250.85 366.3 250.55C367.029 250.25 367.692 249.808 368.25 249.25C368.808 248.692 369.25 248.029 369.55 247.3C369.85 246.571 370.003 245.789 370 245V233" stroke="#AAAEB3" stroke-width="3" stroke-linecap="round" stroke-linejoin="round"/>
<path d="M386 251C385.211 251.003 384.429 250.85 383.7 250.55C382.971 250.25 382.308 249.808 381.75 249.25C381.192 248.692 380.75 248.029 380.45 247.3C380.15 246.571 379.997 245.789 380 245V233" stroke="#AAAEB3" stroke-width="3" stroke-linecap="round" stroke-linejoin="round"/>
<path d="M381 233H385C385.789 232.997 386.571 233.15 387.3 233.45C388.029 233.75 388.692 234.192 389.25 234.75C389.808 235.308 390.25 235.971 390.55 236.7C390.85 237.429 391.003 238.211 391 239V241C390.997 241.789 391.15 242.571 391.45 243.3C391.75 244.03 392.192 244.692 392.75 245.25C393.308 245.808 393.971 246.25 394.7 246.55C395.429 246.85 396.211 247.003 397 247" stroke="#AAAEB3" stroke-width="3" stroke-linecap="round" stroke-linejoin="round"/>
<path d="M369 233H365C364.211 232.997 363.429 233.15 362.7 233.45C361.971 233.75 361.308 234.192 360.75 234.75C360.192 235.308 359.75 235.971 359.45 236.7C359.15 237.429 358.997 238.211 359 239V241C359.003 241.789 358.85 242.571 358.55 243.3C358.25 244.03 357.808 244.692 357.25 245.25C356.692 245.808 356.029 246.25 355.3 246.55C354.571 246.85 353.789 247.003 353 247" stroke="#AAAEB3" stroke-width="3" stroke-linecap="round" stroke-linejoin="round"/>
<path d="M370.95 207C369.775 205.161 368.156 203.648 366.242 202.599C364.329 201.551 362.182 201.001 360 201C359.03 202.679 358.448 204.555 358.296 206.488C358.145 208.422 358.428 210.365 359.125 212.175C357.758 214.19 357.019 216.565 357 219V221C357 224.183 358.264 227.235 360.515 229.485C362.765 231.736 365.817 233 369 233H381C384.183 233 387.235 231.736 389.485 229.485C391.736 227.235 393 224.183 393 221V219C392.981 216.565 392.242 214.19 390.875 212.175C391.572 210.365 391.855 208.422 391.704 206.488C391.552 204.555 390.97 202.679 390 201C387.818 201.001 385.671 201.551 383.757 202.599C381.844 203.648 380.225 205.161 379.05 207H370.95Z" stroke="#AAAEB3" stroke-width="3" stroke-linecap="round" stroke-linejoin="round"/>
</g>
<defs>
<filter id="filter0_f_854_226" x="30.2515" y="27" width="393.497" height="393.497" filterUnits="userSpaceOnUse" color-interpolation-filters="sRGB">
<feFlood flood-opacity="0" result="BackgroundImageFix"/>
<feBlend mode="normal" in="SourceGraphic" in2="BackgroundImageFix" result="shape"/>
<feGaussianBlur stdDeviation="30.5" result="effect1_foregroundBlur_854_226"/>
</filter>
<linearGradient id="paint0_linear_854_226" x1="179.222" y1="123.537" x2="276.249" y2="318.57" gradientUnits="userSpaceOnUse">
<stop stop-color="#5786FF"/>
<stop offset="1" stop-color="#261D8A"/>
</linearGradient>
<linearGradient id="paint1_linear_854_226" x1="165.526" y1="94.3557" x2="291.208" y2="346.99" gradientUnits="userSpaceOnUse">
<stop stop-color="#5786FF"/>
<stop offset="1" stop-color="#261D8A"/>
</linearGradient>
<linearGradient id="paint2_linear_854_226" x1="146.049" y1="53.9591" x2="310.442" y2="384.405" gradientUnits="userSpaceOnUse">
<stop stop-color="#5786FF"/>
<stop offset="1" stop-color="#261D8A"/>
</linearGradient>
<linearGradient id="paint3_linear_854_226" x1="179.222" y1="123.537" x2="276.249" y2="318.57" gradientUnits="userSpaceOnUse">
<stop stop-color="#5786FF"/>
<stop offset="1" stop-color="#261D8A"/>
</linearGradient>
<linearGradient id="paint4_linear_854_226" x1="165.526" y1="94.3557" x2="291.208" y2="346.99" gradientUnits="userSpaceOnUse">
<stop stop-color="#5786FF"/>
<stop offset="1" stop-color="#261D8A"/>
</linearGradient>
<linearGradient id="paint5_linear_854_226" x1="151.862" y1="66.5291" x2="303.479" y2="372.508" gradientUnits="userSpaceOnUse">
<stop stop-color="#5786FF"/>
<stop offset="1" stop-color="#261D8A"/>
</linearGradient>
<clipPath id="clip0_854_226">
<rect width="62" height="62" fill="white" transform="translate(197 194)"/>
</clipPath>
<clipPath id="clip1_854_226">
<rect width="64" height="64" fill="white" transform="translate(47 192)"/>
</clipPath>
<clipPath id="clip2_854_226">
<rect width="64" height="64" fill="white" transform="translate(343 191)"/>
</clipPath>
</defs>
</svg>
