<svg width="24" height="24" viewBox="0 0 24 24" fill="none" xmlns="http://www.w3.org/2000/svg">
<path d="M11.9995 8.24839C11.9995 6.18589 13.7339 4.47026 15.7964 4.49839C16.5187 4.50673 17.2232 4.7235 17.8253 5.12265C18.4273 5.52179 18.9013 6.08633 19.1902 6.74839H22.4995L19.4714 9.77651C19.276 12.8183 17.9295 15.6715 15.7056 17.756C13.4818 19.8405 10.5476 20.9999 7.49953 20.9984C4.49953 20.9984 3.74953 19.8734 3.74953 19.8734C3.74953 19.8734 6.74953 18.7484 8.24953 16.4984C8.24953 16.4984 2.24953 13.4984 3.74953 5.24839C3.74953 5.24839 7.49953 8.99839 11.9995 9.74839V8.24839Z" stroke="#1DA1F2" stroke-width="1.5" stroke-linecap="round" stroke-linejoin="round"/>
</svg>
